<svg xmlns="http://www.w3.org/2000/svg" width="28" height="32" viewBox="0 0 28 32">
    <g fill="#8A94A6" fill-rule="evenodd">
        <path d="M13.997 32c-.423 0-.844-.112-1.213-.33L8.92 29.355c-.577-.327-.295-.443-.105-.51.77-.27.925-.333 1.746-.805.086-.049.2-.03.288.022l2.967 1.786c.108.06.26.06.359 0l11.57-6.768a.371.371 0 0 0 .177-.318V9.228a.38.38 0 0 0-.18-.323L14.178 2.142a.358.358 0 0 0-.357 0L2.26 8.907a.378.378 0 0 0-.184.321v13.533c0 .13.071.252.183.314l3.17 1.856c1.719.871 2.772-.155 2.772-1.186V10.383c0-.189.15-.338.336-.338h1.467c.184 0 .336.15.336.338v13.362c0 2.326-1.25 3.66-3.426 3.66-.67 0-1.196 0-2.665-.734L1.214 24.9A2.483 2.483 0 0 1 0 22.76V9.228c0-.88.464-1.7 1.214-2.137L12.784.315a2.505 2.505 0 0 1 2.431 0l11.57 6.776A2.482 2.482 0 0 1 28 9.228v13.533a2.49 2.49 0 0 1-1.216 2.14l-11.569 6.77c-.37.217-.79.329-1.218.329"/>
        <path d="M17.18 23C12.07 23 11 20.643 11 18.666c0-.188.15-.338.338-.338h1.509c.169 0 .31.122.336.287.227 1.545.907 2.324 3.996 2.324 2.46 0 3.507-.559 3.507-1.87 0-.757-.297-1.318-4.12-1.694-3.194-.317-5.17-1.027-5.17-3.596 0-2.367 1.986-3.779 5.315-3.779 3.74 0 5.591 1.305 5.826 4.104a.347.347 0 0 1-.09.261.343.343 0 0 1-.247.108h-1.515a.337.337 0 0 1-.328-.265c-.363-1.625-1.247-2.144-3.646-2.144-2.685 0-2.997.94-2.997 1.644 0 .854.368 1.102 3.994 1.585 3.588.476 5.292 1.152 5.292 3.686C23 21.536 20.879 23 17.18 23"/>
    </g>
</svg>
