<svg xmlns="http://www.w3.org/2000/svg" xmlns:xlink="http://www.w3.org/1999/xlink" width="46" height="24" viewBox="0 0 46 24">
    <defs>
        <path id="a" d="M0 .026h45.383v23.908H0z"/>
    </defs>
    <g fill="none" fill-rule="evenodd">
        <path fill="#8A94A6" d="M33.722 9H31.97L31 14h1.423c1.096 0 1.914-.202 2.432-.601.512-.395.866-1.078 1.051-2.032.173-.892.107-1.514-.196-1.85C35.4 9.174 34.732 9 33.722 9"/>
        <g>
            <mask id="b" fill="#fff">
                <use xlink:href="#a"/>
            </mask>
            <path fill="#8A94A6" d="M38.991 11.249a5.64 5.64 0 0 1-.602 1.677 5.615 5.615 0 0 1-1.11 1.392 4.864 4.864 0 0 1-1.824 1.095c-.657.214-1.5.323-2.507.323h-2.03l-.579 2.985a.246.246 0 0 1-.241.2h-2.606a.246.246 0 0 1-.242-.294l2.325-11.98a.247.247 0 0 1 .242-.199h5.01c1.576 0 2.748.429 3.484 1.273.741.85.97 2.036.68 3.528m-14.554 4.397a.246.246 0 0 1-.052-.204l1.029-5.3c.098-.504.074-.866-.068-1.019-.087-.093-.347-.25-1.117-.25h-1.863l-1.293 6.663a.246.246 0 0 1-.242.2h-2.585a.246.246 0 0 1-.242-.294l2.325-11.98a.246.246 0 0 1 .242-.199h2.585a.246.246 0 0 1 .242.294l-.561 2.891h2.004c1.527 0 2.563.27 3.166.825.614.565.806 1.47.57 2.689l-1.082 5.574a.246.246 0 0 1-.242.2h-2.626a.246.246 0 0 1-.19-.09m-7.496-1.328a4.863 4.863 0 0 1-1.825 1.095c-.657.214-1.5.323-2.507.323h-2.03L10 18.721a.246.246 0 0 1-.241.2H7.153a.246.246 0 0 1-.242-.294l2.325-11.98a.246.246 0 0 1 .242-.199h5.01c1.576 0 2.748.429 3.484 1.273.741.85.97 2.036.68 3.528a5.634 5.634 0 0 1-.602 1.677 5.614 5.614 0 0 1-1.11 1.392M22.693.026C10.16.026 0 5.38 0 11.98c0 6.602 10.16 11.954 22.692 11.954s22.691-5.352 22.691-11.954C45.383 5.38 35.223.026 22.692.026" mask="url(#b)"/>
        </g>
        <path fill="#8A94A6" d="M13.722 9h-1.751L11 14h1.423c1.096 0 1.914-.202 2.432-.601.512-.395.866-1.078 1.051-2.032.173-.892.107-1.514-.196-1.85C15.4 9.174 14.732 9 13.722 9"/>
    </g>
</svg>
